<mxfile host="app.diagrams.net" agent="Mozilla/5.0 (Windows NT 10.0; Win64; x64) AppleWebKit/537.36 (KHTML, like Gecko) Chrome/131.0.0.0 Safari/537.36" version="26.0.5">
  <diagram name="第 1 页" id="Zwy5icPw73rnX72DsE2P">
    <mxGraphModel dx="1050" dy="541" grid="1" gridSize="10" guides="1" tooltips="1" connect="1" arrows="1" fold="1" page="1" pageScale="1" pageWidth="827" pageHeight="1169" math="0" shadow="0">
      <root>
        <mxCell id="0" />
        <mxCell id="1" parent="0" />
        <mxCell id="oaic1tGb4EcLIH26HLOP-1" value="交易撮合系统" style="rounded=1;whiteSpace=wrap;html=1;" vertex="1" parent="1">
          <mxGeometry x="190" y="20" width="280" height="70" as="geometry" />
        </mxCell>
        <mxCell id="oaic1tGb4EcLIH26HLOP-6" style="rounded=0;orthogonalLoop=1;jettySize=auto;html=1;exitX=0.5;exitY=0;exitDx=0;exitDy=0;entryX=0.5;entryY=1;entryDx=0;entryDy=0;" edge="1" parent="1" source="oaic1tGb4EcLIH26HLOP-2" target="oaic1tGb4EcLIH26HLOP-5">
          <mxGeometry relative="1" as="geometry" />
        </mxCell>
        <mxCell id="oaic1tGb4EcLIH26HLOP-16" style="rounded=0;orthogonalLoop=1;jettySize=auto;html=1;exitX=0.5;exitY=0;exitDx=0;exitDy=0;entryX=0.5;entryY=1;entryDx=0;entryDy=0;" edge="1" parent="1" source="oaic1tGb4EcLIH26HLOP-2" target="oaic1tGb4EcLIH26HLOP-10">
          <mxGeometry relative="1" as="geometry" />
        </mxCell>
        <mxCell id="oaic1tGb4EcLIH26HLOP-20" value="订阅" style="edgeLabel;html=1;align=center;verticalAlign=middle;resizable=0;points=[];" vertex="1" connectable="0" parent="oaic1tGb4EcLIH26HLOP-16">
          <mxGeometry x="-0.1693" y="4" relative="1" as="geometry">
            <mxPoint as="offset" />
          </mxGeometry>
        </mxCell>
        <mxCell id="oaic1tGb4EcLIH26HLOP-2" value="交易对手1" style="rounded=1;whiteSpace=wrap;html=1;" vertex="1" parent="1">
          <mxGeometry x="90" y="360" width="120" height="60" as="geometry" />
        </mxCell>
        <mxCell id="oaic1tGb4EcLIH26HLOP-7" style="rounded=0;orthogonalLoop=1;jettySize=auto;html=1;exitX=0.5;exitY=0;exitDx=0;exitDy=0;entryX=0.5;entryY=1;entryDx=0;entryDy=0;" edge="1" parent="1" source="oaic1tGb4EcLIH26HLOP-3" target="oaic1tGb4EcLIH26HLOP-5">
          <mxGeometry relative="1" as="geometry" />
        </mxCell>
        <mxCell id="oaic1tGb4EcLIH26HLOP-14" style="rounded=0;orthogonalLoop=1;jettySize=auto;html=1;exitX=0.5;exitY=0;exitDx=0;exitDy=0;entryX=0.5;entryY=1;entryDx=0;entryDy=0;" edge="1" parent="1" source="oaic1tGb4EcLIH26HLOP-3" target="oaic1tGb4EcLIH26HLOP-10">
          <mxGeometry relative="1" as="geometry" />
        </mxCell>
        <mxCell id="oaic1tGb4EcLIH26HLOP-19" value="订阅" style="edgeLabel;html=1;align=center;verticalAlign=middle;resizable=0;points=[];" vertex="1" connectable="0" parent="oaic1tGb4EcLIH26HLOP-14">
          <mxGeometry x="-0.5297" y="5" relative="1" as="geometry">
            <mxPoint as="offset" />
          </mxGeometry>
        </mxCell>
        <mxCell id="oaic1tGb4EcLIH26HLOP-3" value="交易对手2" style="rounded=1;whiteSpace=wrap;html=1;" vertex="1" parent="1">
          <mxGeometry x="280" y="360" width="120" height="60" as="geometry" />
        </mxCell>
        <mxCell id="oaic1tGb4EcLIH26HLOP-8" style="rounded=0;orthogonalLoop=1;jettySize=auto;html=1;exitX=0.5;exitY=0;exitDx=0;exitDy=0;entryX=0.5;entryY=1;entryDx=0;entryDy=0;" edge="1" parent="1" source="oaic1tGb4EcLIH26HLOP-4" target="oaic1tGb4EcLIH26HLOP-5">
          <mxGeometry relative="1" as="geometry" />
        </mxCell>
        <mxCell id="oaic1tGb4EcLIH26HLOP-17" style="rounded=0;orthogonalLoop=1;jettySize=auto;html=1;exitX=0.5;exitY=0;exitDx=0;exitDy=0;entryX=0.5;entryY=1;entryDx=0;entryDy=0;" edge="1" parent="1" source="oaic1tGb4EcLIH26HLOP-4" target="oaic1tGb4EcLIH26HLOP-10">
          <mxGeometry relative="1" as="geometry" />
        </mxCell>
        <mxCell id="oaic1tGb4EcLIH26HLOP-18" value="订阅" style="edgeLabel;html=1;align=center;verticalAlign=middle;resizable=0;points=[];" vertex="1" connectable="0" parent="oaic1tGb4EcLIH26HLOP-17">
          <mxGeometry x="-0.194" y="-1" relative="1" as="geometry">
            <mxPoint as="offset" />
          </mxGeometry>
        </mxCell>
        <mxCell id="oaic1tGb4EcLIH26HLOP-4" value="交易对手3" style="rounded=1;whiteSpace=wrap;html=1;" vertex="1" parent="1">
          <mxGeometry x="470" y="360" width="120" height="60" as="geometry" />
        </mxCell>
        <mxCell id="oaic1tGb4EcLIH26HLOP-5" value="委托队列" style="rounded=1;whiteSpace=wrap;html=1;" vertex="1" parent="1">
          <mxGeometry x="220" y="120" width="70" height="170" as="geometry" />
        </mxCell>
        <mxCell id="oaic1tGb4EcLIH26HLOP-9" style="edgeStyle=orthogonalEdgeStyle;rounded=0;orthogonalLoop=1;jettySize=auto;html=1;exitX=0.5;exitY=0;exitDx=0;exitDy=0;entryX=0.226;entryY=1.014;entryDx=0;entryDy=0;entryPerimeter=0;" edge="1" parent="1" source="oaic1tGb4EcLIH26HLOP-5" target="oaic1tGb4EcLIH26HLOP-1">
          <mxGeometry relative="1" as="geometry">
            <mxPoint x="253" y="100" as="targetPoint" />
          </mxGeometry>
        </mxCell>
        <mxCell id="oaic1tGb4EcLIH26HLOP-10" value="成交队列" style="rounded=1;whiteSpace=wrap;html=1;" vertex="1" parent="1">
          <mxGeometry x="379" y="120" width="70" height="170" as="geometry" />
        </mxCell>
        <mxCell id="oaic1tGb4EcLIH26HLOP-11" style="edgeStyle=orthogonalEdgeStyle;rounded=0;orthogonalLoop=1;jettySize=auto;html=1;exitX=0.5;exitY=0;exitDx=0;exitDy=0;entryX=0.8;entryY=1.014;entryDx=0;entryDy=0;entryPerimeter=0;startArrow=classic;startFill=1;endArrow=none;endFill=0;" edge="1" parent="1" source="oaic1tGb4EcLIH26HLOP-10" target="oaic1tGb4EcLIH26HLOP-1">
          <mxGeometry relative="1" as="geometry" />
        </mxCell>
      </root>
    </mxGraphModel>
  </diagram>
</mxfile>
